<?xml version="1.0" encoding="utf-8"?>
<!-- Generator: Adobe Illustrator 26.5.0, SVG Export Plug-In . SVG Version: 6.00 Build 0)  -->
<svg version="1.1" id="Layer_1_copy" xmlns="http://www.w3.org/2000/svg" xmlns:xlink="http://www.w3.org/1999/xlink" x="0px"
	 y="0px" viewBox="0 0 595.2756 841.8898" style="enable-background:new 0 0 595.2756 841.8898;" xml:space="preserve">
<path style="fill:#FFFFFF;stroke:#000000;stroke-miterlimit:10;" d="M399.3096,285.9736
	c-3.4874,69.2401,16.8932,105.5787,12.9027,151.4693C409.2004,490.2999,403.2338,527.229,425,612c8,60-38-58-79,27
	c-11.372,23.5762-13.1637-71.6617-19-59c-14.75,32-48.4183,65.3458-48.4183,35c0-49-32.8518,37.3668-46.5817,26
	c-20.0378-16.589-17.9614-49.4781-34-45c-21.8696,6.1061-33.8802,35.3503-56.2903,52.3086
	c2.2945-30.0234,30.3561-89.3121,27.262-172.0816c-1.177-29.8055,23.7636-55.2821,28.7517-124.5797
	c6.4428-89.5072,16.3524-211.662,99.9144-213.6473C380.4571,136.0323,396.1647,206.983,399.3096,285.9736z"/>
<path style="stroke:#FFFFFF;stroke-miterlimit:10;" d="M360.1862,247.4512c0,12.2883-9.9617,18.1716-22.25,18.1716
	s-22.25-9.9617-22.25-22.25s9.9617-22.3032,22.25-22.3032S360.1862,235.1629,360.1862,247.4512z"/>
<path style="stroke:#FFFFFF;stroke-miterlimit:10;" d="M290.7954,246.3427c0,12.2883-10.9501,19.2801-23.2384,19.2801
	c-12.2883,0-22.25-9.9617-22.25-22.25s9.9617-22.3032,22.25-22.3032C279.8453,221.0696,290.7954,234.0544,290.7954,246.3427z"/>
</svg>
