<?xml version="1.0" encoding="utf-8"?>
<!-- Generator: Adobe Illustrator 26.5.0, SVG Export Plug-In . SVG Version: 6.00 Build 0)  -->
<svg version="1.1" id="Layer_1" xmlns="http://www.w3.org/2000/svg" xmlns:xlink="http://www.w3.org/1999/xlink" x="0px" y="0px"
	 viewBox="0 0 595.2756 841.8898" style="enable-background:new 0 0 595.2756 841.8898;" xml:space="preserve">
<g id="Layer_1_copy">
	<path style="fill:#FFFFFF;stroke:#000000;stroke-miterlimit:10;" d="M394,314.8898c14,218-29,322.1628-29,322.1628
		c-18,0.395-10.4458-59.2589-27.058-31.1486c-16.05,20.6774-18.1044-62.7969-21.942-61.904c-8.123,1.89-22.8741,97.9946-37.2131,52
		C268.5293,563.0974,258,637.0546,258,637.0546c-25.7097,0-15.8633-96.3695-28-59.1648c-7.5858,17.7902-3.9186,9.4087-16,59.1648
		c-28-79.1648-23-95.1648-15-319.1648c3.9431-48.1398,1-181.4956,98.6378-181.4956C383,136.3942,388.527,263.6697,394,314.8898z"/>
	<circle style="stroke:#FFFFFF;stroke-miterlimit:10;" cx="264.1378" cy="248.25" r="22.25"/>
	<circle style="stroke:#FFFFFF;stroke-miterlimit:10;" cx="331.1378" cy="247.5" r="22.25"/>
</g>
</svg>
