<?xml version="1.0" encoding="utf-8"?>
<!-- Generator: Adobe Illustrator 26.5.0, SVG Export Plug-In . SVG Version: 6.00 Build 0)  -->
<svg version="1.1" id="Layer_1_copy" xmlns="http://www.w3.org/2000/svg" xmlns:xlink="http://www.w3.org/1999/xlink" x="0px"
	 y="0px" viewBox="0 0 595.2756 841.8898" style="enable-background:new 0 0 595.2756 841.8898;" xml:space="preserve">
<path style="fill:#FFFFFF;stroke:#000000;stroke-miterlimit:10;" d="M407,318c11,102.9449,20,318.3619,20,318.3619
	c-23.0764,5.6252-44.2847-60.145-73.6122-22.3619c-16.05,20.6774-33.5502-70.8929-37.3878-70
	c-8.123,1.89-22.8741,97.9946-37.2131,52C268.5293,563.0974,234,635,234,635c-25.7097,0-26.8633-102.2047-39-65
	c-19.7571,60.5646-32.3646,34.3133-48,60c-14,23-15.32-100.5292-6.6058-138c10-43,37.4819-92.6427,46.6058-173
	c5.5539-48.9146,13-182.6058,110.6378-182.6058C383,136.3942,401.527,266.7799,407,318z"/>
<path style="stroke:#FFFFFF;stroke-miterlimit:10;" d="M264.1378,226c12.2883,0,22.25,6.0591,22.25,18.3474
	s-9.9617,26.1526-22.25,26.1526s-22.25-9.9617-22.25-22.25S251.8495,226,264.1378,226z"/>
<path style="stroke:#FFFFFF;stroke-miterlimit:10;" d="M331.1378,225.25c12.2883,0,22.25,6.0591,22.25,18.3474
	s-9.9617,26.1526-22.25,26.1526s-22.25-9.9617-22.25-22.25S318.8495,225.25,331.1378,225.25z"/>
</svg>
