<?xml version="1.0" encoding="utf-8"?>
<!-- Generator: Adobe Illustrator 26.5.0, SVG Export Plug-In . SVG Version: 6.00 Build 0)  -->
<svg version="1.1" id="Layer_1" xmlns="http://www.w3.org/2000/svg" xmlns:xlink="http://www.w3.org/1999/xlink" x="0px" y="0px"
	 viewBox="0 0 595.2756 841.8898" style="enable-background:new 0 0 595.2756 841.8898;" xml:space="preserve">
<g id="Layer_1_copy">
	<path style="fill:#231F20;stroke:#000000;stroke-miterlimit:10;" d="M322.6652,461.8238v140.679
		c0,11.1346,6.7053,21.2203,17.0992,25.7197l25.4581,11.0204c8.2816,3.585,17.8884,2.5493,25.1765-2.7142h0
		c4.5114-3.2581,4.501-9.8699-0.0205-13.1144l-21.7234-15.5879c-4.591-3.2943-7.2577-8.5726-7.1475-14.1475l2.0283-102.6473"/>
	<path style="fill:#231F20;stroke:#000000;stroke-miterlimit:10;" d="M244.3247,468.22l-4.4928,140.1955
		c-0.3335,10.4078,5.5027,20.0665,14.9759,24.7845l31.3252,15.601c8.3147,4.1411,18.2923,3.3914,25.8656-1.9435l0,0
		c4.818-3.394,4.8873-10.3956,0.1374-13.8804l-21.8479-16.0292c-4.4928-3.2963-7.0918-8.5101-6.9832-14.0089l2.662-134.719"/>
	<path style="fill:#FFFFFF;stroke:#000000;stroke-miterlimit:10;" d="M391.1723,282.1518
		c2.8096,14.0632,40.4276,10.317,47.4138,30.1724c16.3793,46.5517,8.4946,101.3043,43.3654,89.5644
		c23.2759-15.5172,20.0594-57.1281,48.8759-48.1851c25,7.7586,55.0793-67.936,55.1724-62.0689
		c0.3826,24.1053-12.1776,89.0969-11.2069,115.5172c1.5587,42.4233-16.1362,94.4251-31.5082,96.5827
		c-7.2324,1.0151-13.8954-4.2686-14.8315-11.5116c-5.2974-40.9908-40.7292,9.7565-69.1775-11.7953
		c-24.4214,0-19.292,36.6535-33.6207,32.7586c-18.979-5.159-43.3022-26.5474-53.4483-12.9311
		c-32.7586,43.9628-51.558-12.6218-67.2414-12.0747c-19.5376,0.6816-3.2311,24.1437-32.7586,19.8333
		c-14.6222-2.1345-28.1317,24.9695-40.8263,14.6552c-13.7931-11.2069-7.7966-29.8678-14.3461-34.4885
		c-12.0297-8.4871-28.4922-11.2983-37.931,0c-6.1235,7.3299-14.0508,20.3919-21.5517,18.9713c-21-48-57.1623,16.051-65.5172-10.3448
		c-4.7005-14.8506,2.4265-31.4187-10.3448-33.6207c-25-4.3104-32.6865,15.5893-44.8276,3.4483
		c-11.2069-11.2069-25-21.5517-17.0382-45.6897c0,0,16.1761-55.1724,1.5209-130.1724c-0.8864-4.536,23.2759,55.8395,57.7586,38.7931
		c29.0905-14.3808,33.9777,27.8287,41.3793,40.5172c18.1034,31.0345,25.1262,14.3187,48.2759-47.4138
		c7.7586-20.6897,41.3007,4.011,39.6552-40.5172c-2.1052-56.9673,16.3793-135.3448,93.1034-135.3448
		C373.9309,146.8069,392.0343,218.3587,391.1723,282.1518z"/>
	<path style="stroke:#FFFFFF;stroke-miterlimit:10;" d="M329.2739,236.4621c11.2589,0,20.3861,1.1674,20.3861,11.7879
		s-9.1272-0.581-20.3861-0.581c-11.2589,0-20.3861,11.2015-20.3861,0.581S318.015,236.4621,329.2739,236.4621z"/>
</g>
<path style="stroke:#FFFFFF;stroke-miterlimit:10;" d="M266.0017,236.4621c11.2589,0,20.3861,1.1674,20.3861,11.7879
	s-9.1272-0.581-20.3861-0.581c-11.259,0-20.3861,11.2015-20.3861,0.581S254.7427,236.4621,266.0017,236.4621z"/>
<path style="fill:#FFFFFF;stroke:#000000;stroke-miterlimit:10;" d="M92.0343,455.4276"/>
<path style="fill:#FFFFFF;stroke:#000000;stroke-miterlimit:10;" d="M231.3804,544.218"/>
</svg>
