<?xml version="1.0" encoding="utf-8"?>
<!-- Generator: Adobe Illustrator 26.5.0, SVG Export Plug-In . SVG Version: 6.00 Build 0)  -->
<svg version="1.1" id="Layer_1" xmlns="http://www.w3.org/2000/svg" xmlns:xlink="http://www.w3.org/1999/xlink" x="0px" y="0px"
	 viewBox="0 0 896 720" style="enable-background:new 0 0 896 720;" xml:space="preserve">
<polygon style="fill:#0C4521;" points="0,411.2107 12.6892,390.5851 12.6892,411.2107 25.1586,377.5585 33.583,411.2107 
	38.0169,394.3846 46.4412,411.2107 48.6582,377.5585 55.7524,411.2107 62.5212,398.4595 70.9787,411.2107 72.6011,377.5585 
	88.914,411.2107 91.7981,398.4009 101.4213,411.2107 109.0911,388.414 119.1797,411.2107 123.6635,394.3846 131.5102,411.2107 
	142.7197,377.5585 156.1711,411.2107 162.8969,394.3846 175.2273,411.2107 183.074,384.0718 194.2835,411.2107 213.3397,377.5585 
	222.3074,411.2107 235.7588,394.3846 243.6055,411.2107 257.0569,377.5585 264.9036,411.2107 270.5083,377.5585 279.476,411.2107 
	286.2017,394.3846 292.9274,411.2107 305.2579,377.5585 305.2579,411.2107 317.5883,386.2429 317.5883,411.2107 332.1607,377.5585 
	341.1284,411.2107 346.7331,394.3846 353.4588,411.2107 360.1846,377.5585 364.6684,411.2107 373.636,386.2429 381.4827,411.2107 
	390.4503,377.5585 399.4179,411.2107 416.2322,377.5585 428.5627,411.2107 437.5303,394.3846 444.256,411.2107 453.2236,377.5585 
	462.0119,411.2107 471.6504,377.5585 475.6427,411.2107 484.6103,394.3846 493.5779,411.2107 499.1827,377.5585 504.4611,411.2107 
	509.2713,387.3285 519.3599,411.2107 530.5694,377.5585 544.0208,411.2107 548.5046,394.3846 557.4722,411.2107 567.5609,394.3846 
	575.4075,411.2107 583.2542,377.5585 597.8265,411.2107 603.4313,387.3285 613.5199,411.2107 622.4875,385.1574 630.3342,411.2107 
	640.4227,377.5585 640.4227,411.2107 652.7532,394.3846 660.5999,411.2107 666.2047,377.5585 674.0513,411.2107 681.898,394.3846 
	689.7447,411.2107 696.4704,386.2429 703.1961,411.2107 708.8009,388.414 720.0104,411.2107 730.099,377.5585 743.5504,411.2107 
	749.1552,394.3846 759.2438,411.2107 767.0905,382.9863 772.6952,411.2107 786.1466,377.5585 792.6633,411.2107 805.2028,389.4996 
	809.6866,411.2107 817.5333,377.5585 824.259,411.2107 830.9847,394.3846 836.5895,411.2107 851.1619,394.3846 859.0085,411.2107 
	866.8552,394.3846 875.8229,411.2107 875.8229,377.5585 896,411.2107 896,720 0,720 "/>
<g>
	<path style="fill:#808285;" d="M742.3451,644.7466l0.3954-60.4872c0.0317-4.8564,0.9869-9.6625,2.8148-14.1619l2.9032-7.1468
		c2.0113-4.951,6.4529-8.4997,11.7258-9.3683l5.557-0.9154c2.3518-0.3874,4.7605-0.2448,7.0502,0.4174l6.191,1.7906
		c3.6973,1.0694,6.7648,3.6618,8.4355,7.1292l5.3178,11.0363c1.0508,2.181,1.5966,4.5707,1.5966,6.9917v72.3216L742.3451,644.7466z"
		/>
	<path style="fill:#939598;" d="M747.7808,637.1395l0.3325-53.7566c0.0121-1.9481,0.3608-3.8794,1.0309-5.7086l3.4084-9.3043
		c1.5039-4.1054,5.1421-7.0524,9.4703-7.6712l4.8407-0.6921c1.4792-0.2114,2.9869-0.0947,4.4158,0.3422l4.5267,1.3835
		c3.5265,1.0779,6.4216,3.6162,7.9514,6.9715l3.752,8.2291c0.9142,2.005,1.3873,4.1829,1.3873,6.3865v61.2054L747.7808,637.1395z"/>
	<g>
		<polygon style="fill:#808285;" points="759.7676,586.3528 757.2346,585.957 757.2346,576.0611 759.7676,576.9022 		"/>
		<polygon style="fill:#808285;" points="764.0596,589.7834 761.5266,589.3876 761.5266,579.4916 764.0596,580.3328 		"/>
		<polygon style="fill:#808285;" points="769.1256,587.8042 766.5926,587.4084 766.5926,577.5125 769.1256,578.3536 		"/>
		<polygon style="fill:#808285;" points="770.8718,605.4465 768.3387,605.0507 768.3387,595.1547 770.8718,595.9959 		"/>
		<polygon style="fill:#808285;" points="775.8187,610.103 773.2857,609.7071 773.2857,599.8112 775.8187,600.6523 		"/>
		<polygon style="fill:#808285;" points="761.0341,622.9097 758.5011,622.5139 758.5011,612.618 761.0341,613.4591 		"/>
		<polygon style="fill:#808285;" points="778.3517,628.4946 775.8187,628.0987 775.8187,618.2028 778.3517,619.0439 		"/>
		<polygon style="fill:#808285;" points="780.6121,609.1133 778.079,608.7175 778.079,598.8217 780.6121,599.6628 		"/>
	</g>
</g>
<g>
	<path style="fill:#808285;" d="M416.4607,647.3392l0.3954-60.4872c0.0317-4.8564,0.987-9.6625,2.8148-14.162l2.9032-7.1467
		c2.0113-4.951,6.4529-8.4997,11.7258-9.3683l5.557-0.9154c2.3518-0.3875,4.7605-0.2448,7.0502,0.4174l6.191,1.7906
		c3.6974,1.0693,6.7649,3.6618,8.4356,7.1292l5.3178,11.0363c1.0509,2.181,1.5966,4.5707,1.5966,6.9917v72.3215L416.4607,647.3392z"
		/>
	<path style="fill:#939598;" d="M421.8964,639.7321l0.3325-53.7566c0.012-1.9481,0.3608-3.8794,1.0309-5.7086l3.4084-9.3043
		c1.504-4.1055,5.1421-7.0525,9.4704-7.6713l4.8407-0.692c1.4792-0.2115,2.9869-0.0947,4.4159,0.3421l4.5266,1.3836
		c3.5265,1.0779,6.4216,3.6162,7.9514,6.9715l3.752,8.2291c0.9142,2.005,1.3872,4.1829,1.3872,6.3865v61.2054L421.8964,639.7321z"/>
	<g>
		<polygon style="fill:#808285;" points="433.8832,588.9454 431.3502,588.5496 431.3502,578.6537 433.8832,579.4949 		"/>
		<polygon style="fill:#808285;" points="438.1752,592.376 435.6422,591.9802 435.6422,582.0843 438.1752,582.9254 		"/>
		<polygon style="fill:#808285;" points="443.2412,590.3969 440.7082,590.001 440.7082,580.1051 443.2412,580.9462 		"/>
		<polygon style="fill:#808285;" points="444.9874,608.0391 442.4543,607.6432 442.4543,597.7474 444.9874,598.5886 		"/>
		<polygon style="fill:#808285;" points="449.9343,612.6956 447.4013,612.2997 447.4013,602.4039 449.9343,603.245 		"/>
		<polygon style="fill:#808285;" points="435.1497,625.5023 432.6167,625.1065 432.6167,615.2106 435.1497,616.0518 		"/>
		<polygon style="fill:#808285;" points="452.4673,631.0872 449.9343,630.6913 449.9343,620.7955 452.4673,621.6366 		"/>
		<polygon style="fill:#808285;" points="454.7277,611.706 452.1947,611.3102 452.1947,601.4142 454.7277,602.2554 		"/>
	</g>
</g>
<g>
	<path style="fill:#808285;" d="M226.1645,458.7063l0.3953-60.4872c0.0317-4.8564,0.987-9.6625,2.8148-14.162l2.9032-7.1467
		c2.0113-4.9511,6.4529-8.4997,11.7258-9.3683l5.557-0.9154c2.3518-0.3874,4.7605-0.2448,7.0502,0.4174l6.1909,1.7906
		c3.6974,1.0694,6.7649,3.6618,8.4356,7.1292l5.3177,11.0363c1.0509,2.181,1.5966,4.5708,1.5966,6.9917v72.3216L226.1645,458.7063z"
		/>
	<path style="fill:#939598;" d="M231.6001,451.0992l0.3325-53.7566c0.012-1.9481,0.3608-3.8794,1.0309-5.7086l3.4084-9.3043
		c1.5039-4.1054,5.1421-7.0525,9.4704-7.6712l4.8407-0.692c1.4792-0.2115,2.9869-0.0947,4.4159,0.3421l4.5266,1.3836
		c3.5265,1.0779,6.4216,3.6162,7.9514,6.9715l3.752,8.2291c0.9142,2.005,1.3872,4.183,1.3872,6.3865v61.2054L231.6001,451.0992z"/>
	<g>
		<polygon style="fill:#808285;" points="243.5869,400.3125 241.0539,399.9167 241.0539,390.0208 243.5869,390.8619 		"/>
		<polygon style="fill:#808285;" points="247.8789,403.7431 245.3459,403.3473 245.3459,393.4514 247.8789,394.2925 		"/>
		<polygon style="fill:#808285;" points="252.9449,401.7639 250.4119,401.3681 250.4119,391.4722 252.9449,392.3133 		"/>
		<polygon style="fill:#808285;" points="254.6911,419.4062 252.1581,419.0103 252.1581,409.1145 254.6911,409.9556 		"/>
		<polygon style="fill:#808285;" points="259.638,424.0627 257.105,423.6668 257.105,413.7709 259.638,414.6121 		"/>
		<polygon style="fill:#808285;" points="244.8534,436.8694 242.3204,436.4736 242.3204,426.5777 244.8534,427.4189 		"/>
		<polygon style="fill:#808285;" points="262.1711,442.4543 259.638,442.0584 259.638,432.1625 262.1711,433.0037 		"/>
		<polygon style="fill:#808285;" points="264.4314,423.0731 261.8984,422.6772 261.8984,412.7813 264.4314,413.6225 		"/>
	</g>
</g>
<g>
	<path style="fill:#808285;" d="M554.9577,465.4158l0.3953-60.4872c0.0317-4.8564,0.987-9.6625,2.8148-14.162l2.9032-7.1467
		c2.0113-4.9511,6.4529-8.4997,11.7258-9.3683l5.557-0.9154c2.3519-0.3874,4.7605-0.2448,7.0502,0.4174l6.191,1.7906
		c3.6974,1.0694,6.7648,3.6618,8.4356,7.1292l5.3177,11.0363c1.0509,2.181,1.5966,4.5708,1.5966,6.9917v72.3216L554.9577,465.4158z"
		/>
	<path style="fill:#939598;" d="M560.3933,457.8087l0.3325-53.7566c0.0121-1.9481,0.3608-3.8794,1.0309-5.7086l3.4084-9.3043
		c1.5039-4.1055,5.1421-7.0525,9.4703-7.6713l4.8407-0.692c1.4792-0.2115,2.9869-0.0947,4.4159,0.3421l4.5266,1.3836
		c3.5266,1.0779,6.4216,3.6162,7.9514,6.9715l3.752,8.2291c0.9141,2.005,1.3872,4.183,1.3872,6.3865v61.2054L560.3933,457.8087z"/>
	<g>
		<polygon style="fill:#808285;" points="572.3801,407.022 569.8472,406.6262 569.8472,396.7303 572.3801,397.5714 		"/>
		<polygon style="fill:#808285;" points="576.6722,410.4526 574.1392,410.0568 574.1392,400.1609 576.6722,401.002 		"/>
		<polygon style="fill:#808285;" points="581.7382,408.4734 579.2052,408.0776 579.2052,398.1817 581.7382,399.0229 		"/>
		<polygon style="fill:#808285;" points="583.4843,426.1157 580.9513,425.7198 580.9513,415.824 583.4843,416.6651 		"/>
		<polygon style="fill:#808285;" points="588.4313,430.7722 585.8983,430.3763 585.8983,420.4804 588.4313,421.3216 		"/>
		<polygon style="fill:#808285;" points="573.6467,443.5789 571.1136,443.1831 571.1136,433.2872 573.6467,434.1284 		"/>
		<polygon style="fill:#808285;" points="590.9643,449.1638 588.4313,448.7679 588.4313,438.872 590.9643,439.7132 		"/>
		<polygon style="fill:#808285;" points="593.2246,429.7826 590.6917,429.3867 590.6917,419.4908 593.2246,420.332 		"/>
	</g>
</g>
<g>
	<path style="fill:#808285;" d="M53.3118,648.9611l0.3953-60.4872c0.0317-4.8564,0.987-9.6625,2.8148-14.162l2.9032-7.1467
		c2.0113-4.9511,6.4529-8.4997,11.7258-9.3683l5.557-0.9154c2.3518-0.3874,4.7605-0.2448,7.0502,0.4175l6.191,1.7905
		c3.6974,1.0694,6.7649,3.6619,8.4356,7.1292l5.3178,11.0363c1.0509,2.181,1.5966,4.5708,1.5966,6.9918v72.3215L53.3118,648.9611z"
		/>
	<path style="fill:#939598;" d="M58.7474,641.354l0.3325-53.7566c0.012-1.9481,0.3608-3.8793,1.0309-5.7086l3.4084-9.3043
		c1.5039-4.1055,5.1421-7.0525,9.4703-7.6713l4.8407-0.692c1.4792-0.2115,2.9869-0.0947,4.4159,0.3421l4.5266,1.3836
		c3.5265,1.0779,6.4216,3.6161,7.9514,6.9714l3.7519,8.2291c0.9142,2.0051,1.3872,4.183,1.3872,6.3865v61.2054L58.7474,641.354z"/>
	<g>
		<polygon style="fill:#808285;" points="70.7342,590.5674 68.2012,590.1715 68.2012,580.2756 70.7342,581.1168 		"/>
		<polygon style="fill:#808285;" points="75.0263,593.9979 72.4933,593.6021 72.4933,583.7062 75.0263,584.5474 		"/>
		<polygon style="fill:#808285;" points="80.0923,592.0187 77.5593,591.6229 77.5593,581.7271 80.0923,582.5682 		"/>
		<polygon style="fill:#808285;" points="81.8384,609.661 79.3054,609.2652 79.3054,599.3693 81.8384,600.2104 		"/>
		<polygon style="fill:#808285;" points="86.7854,614.3175 84.2524,613.9217 84.2524,604.0258 86.7854,604.8669 		"/>
		<polygon style="fill:#808285;" points="72.0007,627.1243 69.4677,626.7285 69.4677,616.8325 72.0007,617.6737 		"/>
		<polygon style="fill:#808285;" points="89.3184,632.7091 86.7854,632.3133 86.7854,622.4174 89.3184,623.2585 		"/>
		<polygon style="fill:#808285;" points="91.5787,613.3279 89.0457,612.9321 89.0457,603.0362 91.5787,603.8773 		"/>
	</g>
</g>
</svg>
